<svg class="main-svg" xmlns="http://www.w3.org/2000/svg" xmlns:xlink="http://www.w3.org/1999/xlink" width="1400" height="1000" style="" viewBox="0 0 700 500"><rect x="0" y="0" width="700" height="500" style="fill: rgb(0, 0, 0); fill-opacity: 0;"/><defs id="defs-6880c3"><g class="clips"><clipPath id="clip6880c3xyplot" class="plotclip"><rect width="480" height="306"/></clipPath><clipPath class="axesclip" id="clip6880c3x"><rect x="80" y="0" width="480" height="500"/></clipPath><clipPath class="axesclip" id="clip6880c3y"><rect x="0" y="100" width="700" height="306"/></clipPath><clipPath class="axesclip" id="clip6880c3xy"><rect x="80" y="100" width="480" height="306"/></clipPath></g><g class="gradients"/><g class="patterns"/></defs><g class="bglayer"><rect class="bg" x="80" y="100" width="480" height="306" style="fill: rgb(0, 0, 0); fill-opacity: 0; stroke-width: 0;"/></g><g class="layer-below"><g class="imagelayer"/><g class="shapelayer"/></g><g class="cartesianlayer"><g class="subplot xy"><g class="layer-subplot"><g class="shapelayer"/><g class="imagelayer"/></g><g class="minor-gridlayer"><g class="x"/><g class="y"/></g><g class="gridlayer"><g class="x"/><g class="y"><path class="ygrid crisp" transform="translate(0,398.39)" d="M80,0h480" style="stroke: rgb(235, 240, 248); stroke-opacity: 1; stroke-width: 1px;"/><path class="ygrid crisp" transform="translate(0,333.34000000000003)" d="M80,0h480" style="stroke: rgb(235, 240, 248); stroke-opacity: 1; stroke-width: 1px;"/><path class="ygrid crisp" transform="translate(0,268.28999999999996)" d="M80,0h480" style="stroke: rgb(235, 240, 248); stroke-opacity: 1; stroke-width: 1px;"/><path class="ygrid crisp" transform="translate(0,203.24)" d="M80,0h480" style="stroke: rgb(235, 240, 248); stroke-opacity: 1; stroke-width: 1px;"/><path class="ygrid crisp" transform="translate(0,138.19)" d="M80,0h480" style="stroke: rgb(235, 240, 248); stroke-opacity: 1; stroke-width: 1px;"/></g></g><g class="zerolinelayer"/><path class="xlines-below"/><path class="ylines-below"/><g class="overlines-below"/><g class="xaxislayer-below"/><g class="yaxislayer-below"/><g class="overaxes-below"/><g class="plot" transform="translate(80,100)" clip-path="url(#clip6880c3xyplot)"><g class="violinlayer mlayer"><g class="trace violins" style="opacity: 1;"><path class="violin" d="M24.03,277.59Q24.05,274.36 24.06,272.74C24.07,271.13 24.09,269.51 24.11,267.9C24.14,266.28 24.16,264.67 24.21,263.05C24.25,261.44 24.31,259.82 24.38,258.21C24.45,256.59 24.54,254.98 24.65,253.36C24.76,251.75 24.89,250.13 25.05,248.52C25.21,246.9 25.4,245.28 25.61,243.67C25.82,242.05 26.06,240.44 26.32,238.83C26.58,237.21 26.88,235.59 27.18,233.98C27.48,232.36 27.8,230.75 28.11,229.14C28.42,227.52 28.73,225.91 29.03,224.29C29.32,222.68 29.62,221.07 29.88,219.45C30.14,217.84 30.38,216.22 30.59,214.6C30.8,212.99 30.98,211.37 31.14,209.76C31.3,208.15 31.43,206.53 31.56,204.92C31.69,203.3 31.81,201.69 31.93,200.07C32.05,198.46 32.16,196.84 32.29,195.23C32.42,193.61 32.55,192 32.69,190.38C32.83,188.77 32.98,187.15 33.13,185.54C33.28,183.92 33.45,182.31 33.6,180.69C33.75,179.08 33.91,177.46 34.05,175.85C34.19,174.23 34.31,172.62 34.43,171C34.54,169.39 34.65,167.77 34.74,166.16C34.83,164.54 34.91,162.93 34.98,161.31C35.05,159.7 35.11,158.08 35.16,156.47C35.22,154.85 35.27,153.24 35.31,151.62C35.35,150.01 35.38,148.39 35.39,146.78C35.4,145.16 35.4,143.55 35.37,141.93C35.34,140.32 35.3,138.7 35.22,137.09C35.14,135.48 35.03,133.86 34.91,132.25C34.78,130.63 34.63,129.02 34.47,127.4C34.31,125.79 34.12,124.17 33.94,122.56C33.76,120.94 33.57,119.33 33.39,117.71C33.21,116.1 33.03,114.48 32.84,112.87C32.65,111.25 32.47,109.64 32.27,108.02C32.07,106.41 31.87,104.79 31.66,103.18C31.45,101.56 31.24,99.95 31.02,98.33C30.8,96.72 30.56,95.1 30.33,93.49C30.1,91.87 29.87,90.26 29.64,88.64C29.41,87.03 29.18,85.41 28.95,83.8C28.72,82.18 28.49,80.57 28.26,78.95C28.03,77.34 27.81,75.72 27.59,74.11C27.37,72.49 27.15,70.88 26.94,69.26C26.73,67.65 26.52,66.03 26.32,64.42C26.12,62.81 25.93,61.19 25.76,59.58C25.59,57.96 25.42,56.35 25.28,54.73C25.14,53.12 25.01,51.5 24.9,49.89C24.79,48.27 24.69,46.66 24.61,45.04C24.53,43.43 24.46,41.81 24.4,40.2C24.34,38.58 24.29,36.97 24.25,35.35C24.21,33.74 24.18,32.12 24.15,30.51C24.12,28.89 24.11,27.28 24.09,25.66C24.07,24.05 24.06,22.43 24.05,20.82Q24.04,19.2 24.02,15.97L23.98,15.97Q23.96,19.2 23.95,20.82C23.94,22.43 23.93,24.05 23.91,25.66C23.89,27.28 23.88,28.89 23.85,30.51C23.82,32.12 23.79,33.74 23.75,35.35C23.71,36.97 23.66,38.58 23.6,40.2C23.54,41.81 23.47,43.43 23.39,45.04C23.31,46.66 23.21,48.27 23.1,49.89C22.99,51.5 22.86,53.12 22.72,54.73C22.58,56.35 22.41,57.96 22.24,59.58C22.07,61.19 21.88,62.81 21.68,64.42C21.48,66.03 21.27,67.65 21.06,69.26C20.85,70.88 20.63,72.49 20.41,74.11C20.19,75.72 19.97,77.34 19.74,78.95C19.51,80.57 19.28,82.18 19.05,83.8C18.82,85.41 18.59,87.03 18.36,88.64C18.13,90.26 17.9,91.87 17.67,93.49C17.44,95.1 17.2,96.72 16.98,98.33C16.76,99.95 16.55,101.56 16.34,103.18C16.13,104.79 15.93,106.41 15.73,108.02C15.53,109.64 15.35,111.25 15.16,112.87C14.97,114.48 14.79,116.1 14.61,117.71C14.43,119.33 14.24,120.94 14.06,122.56C13.88,124.17 13.69,125.79 13.53,127.4C13.37,129.02 13.22,130.63 13.09,132.25C12.97,133.86 12.86,135.48 12.78,137.09C12.7,138.7 12.66,140.32 12.63,141.93C12.6,143.55 12.6,145.16 12.61,146.78C12.62,148.39 12.65,150.01 12.69,151.62C12.73,153.24 12.78,154.85 12.84,156.47C12.89,158.08 12.95,159.7 13.02,161.31C13.09,162.93 13.17,164.54 13.26,166.16C13.35,167.77 13.46,169.39 13.57,171C13.69,172.62 13.81,174.23 13.95,175.85C14.09,177.46 14.25,179.08 14.4,180.69C14.55,182.31 14.72,183.92 14.87,185.54C15.02,187.15 15.17,188.77 15.31,190.38C15.45,192 15.58,193.61 15.71,195.23C15.84,196.84 15.95,198.46 16.07,200.07C16.19,201.69 16.31,203.3 16.44,204.92C16.57,206.53 16.7,208.15 16.86,209.76C17.02,211.37 17.2,212.99 17.41,214.6C17.62,216.22 17.86,217.84 18.12,219.45C18.38,221.07 18.68,222.68 18.97,224.29C19.27,225.91 19.58,227.52 19.89,229.14C20.2,230.75 20.52,232.36 20.82,233.98C21.12,235.59 21.42,237.21 21.68,238.83C21.94,240.44 22.18,242.05 22.39,243.67C22.6,245.28 22.79,246.9 22.95,248.52C23.11,250.13 23.24,251.75 23.35,253.36C23.46,254.98 23.55,256.59 23.62,258.21C23.69,259.82 23.75,261.44 23.79,263.05C23.84,264.67 23.86,266.28 23.89,267.9C23.91,269.51 23.93,271.13 23.94,272.74Q23.95,274.36 23.97,277.59Z" style="vector-effect: non-scaling-stroke; stroke-width: 2px; stroke: rgb(64, 64, 64); stroke-opacity: 1; fill: rgb(99, 110, 250); fill-opacity: 1;"/><path class="box" d="M21.06,151.68H26.94M21.06,185.26H26.94V120.36H21.06ZM24,185.26V248.27M24,120.36V45.29" style="vector-effect: non-scaling-stroke; stroke-width: 2px; stroke: rgb(64, 64, 64); stroke-opacity: 1; fill: rgb(99, 110, 250); fill-opacity: 1;"/><path class="mean" d="M21.06,152.04H26.94" style="fill: none; vector-effect: non-scaling-stroke; stroke-width: 2px; stroke-dasharray: 4px, 2px; stroke: rgb(64, 64, 64); stroke-opacity: 1;"/></g><g class="trace violins" style="opacity: 1;"><path class="violin" d="M72.05,274.37Q72.08,271.12 72.11,269.49C72.14,267.86 72.17,266.24 72.21,264.61C72.25,262.98 72.3,261.35 72.37,259.72C72.43,258.09 72.51,256.47 72.6,254.84C72.69,253.21 72.8,251.59 72.93,249.96C73.06,248.33 73.21,246.71 73.39,245.08C73.57,243.45 73.77,241.82 74,240.2C74.23,238.57 74.48,236.94 74.76,235.32C75.04,233.69 75.36,232.07 75.67,230.44C75.98,228.81 76.32,227.18 76.64,225.55C76.96,223.92 77.29,222.3 77.59,220.67C77.89,219.05 78.17,217.42 78.42,215.79C78.66,214.17 78.87,212.54 79.06,210.91C79.24,209.28 79.39,207.66 79.53,206.03C79.67,204.4 79.78,202.78 79.9,201.15C80.02,199.52 80.12,197.9 80.24,196.27C80.36,194.64 80.49,193.01 80.62,191.38C80.75,189.75 80.89,188.13 81.04,186.5C81.19,184.87 81.35,183.25 81.5,181.62C81.65,179.99 81.79,178.37 81.93,176.74C82.06,175.11 82.2,173.49 82.31,171.86C82.42,170.23 82.52,168.61 82.61,166.98C82.7,165.35 82.78,163.73 82.85,162.1C82.92,160.47 82.98,158.84 83.04,157.21C83.1,155.58 83.16,153.96 83.21,152.33C83.26,150.7 83.29,149.08 83.32,147.45C83.34,145.82 83.37,144.2 83.36,142.57C83.35,140.94 83.31,139.32 83.25,137.69C83.19,136.06 83.09,134.44 82.98,132.81C82.87,131.18 82.72,129.56 82.57,127.93C82.41,126.3 82.23,124.67 82.05,123.04C81.87,121.41 81.69,119.79 81.5,118.16C81.31,116.53 81.12,114.91 80.93,113.28C80.74,111.65 80.55,110.03 80.36,108.4C80.16,106.77 79.97,105.15 79.76,103.52C79.55,101.89 79.34,100.27 79.12,98.64C78.9,97.01 78.67,95.39 78.44,93.76C78.21,92.13 77.97,90.5 77.73,88.87C77.5,87.24 77.26,85.62 77.03,83.99C76.79,82.36 76.55,80.74 76.32,79.11C76.09,77.48 75.87,75.86 75.64,74.23C75.42,72.6 75.19,70.98 74.97,69.35C74.76,67.72 74.55,66.1 74.35,64.47C74.16,62.84 73.97,61.22 73.8,59.59C73.63,57.96 73.46,56.33 73.32,54.7C73.18,53.07 73.05,51.45 72.94,49.82C72.83,48.19 72.73,46.57 72.64,44.94C72.55,43.31 72.48,41.69 72.42,40.06C72.36,38.43 72.3,36.81 72.26,35.18C72.22,33.55 72.19,31.93 72.16,30.3C72.13,28.67 72.11,27.05 72.09,25.42C72.07,23.79 72.06,22.16 72.05,20.53Q72.04,18.9 72.02,15.65L71.98,15.65Q71.96,18.9 71.95,20.53C71.94,22.16 71.93,23.79 71.91,25.42C71.89,27.05 71.87,28.67 71.84,30.3C71.81,31.93 71.78,33.55 71.74,35.18C71.7,36.81 71.64,38.43 71.58,40.06C71.52,41.69 71.45,43.31 71.36,44.94C71.27,46.57 71.17,48.19 71.06,49.82C70.95,51.45 70.82,53.07 70.68,54.7C70.54,56.33 70.37,57.96 70.2,59.59C70.03,61.22 69.84,62.84 69.65,64.47C69.45,66.1 69.24,67.72 69.03,69.35C68.81,70.98 68.58,72.6 68.36,74.23C68.13,75.86 67.91,77.48 67.68,79.11C67.45,80.74 67.21,82.36 66.97,83.99C66.74,85.62 66.5,87.24 66.27,88.87C66.03,90.5 65.79,92.13 65.56,93.76C65.33,95.39 65.1,97.01 64.88,98.64C64.66,100.27 64.45,101.89 64.24,103.52C64.03,105.15 63.84,106.77 63.64,108.4C63.45,110.03 63.26,111.65 63.07,113.28C62.88,114.91 62.69,116.53 62.5,118.16C62.31,119.79 62.13,121.41 61.95,123.04C61.77,124.67 61.59,126.3 61.43,127.93C61.28,129.56 61.13,131.18 61.02,132.81C60.91,134.44 60.81,136.06 60.75,137.69C60.69,139.32 60.65,140.94 60.64,142.57C60.63,144.2 60.66,145.82 60.68,147.45C60.71,149.08 60.74,150.7 60.79,152.33C60.84,153.96 60.9,155.58 60.96,157.21C61.02,158.84 61.08,160.47 61.15,162.1C61.22,163.73 61.3,165.35 61.39,166.98C61.48,168.61 61.58,170.23 61.69,171.86C61.8,173.49 61.94,175.11 62.07,176.74C62.21,178.37 62.35,179.99 62.5,181.62C62.65,183.25 62.81,184.87 62.96,186.5C63.11,188.13 63.25,189.75 63.38,191.38C63.51,193.01 63.64,194.64 63.76,196.27C63.88,197.9 63.98,199.52 64.1,201.15C64.22,202.78 64.33,204.4 64.47,206.03C64.61,207.66 64.76,209.28 64.94,210.91C65.13,212.54 65.34,214.17 65.58,215.79C65.83,217.42 66.11,219.05 66.41,220.67C66.71,222.3 67.04,223.92 67.36,225.55C67.68,227.18 68.02,228.81 68.33,230.44C68.64,232.07 68.96,233.69 69.24,235.32C69.52,236.94 69.77,238.57 70,240.2C70.23,241.82 70.43,243.45 70.61,245.08C70.79,246.71 70.94,248.33 71.07,249.96C71.2,251.59 71.31,253.21 71.4,254.84C71.49,256.47 71.57,258.09 71.63,259.72C71.7,261.35 71.75,262.98 71.79,264.61C71.83,266.24 71.86,267.86 71.89,269.49Q71.92,271.12 71.95,274.37Z" style="vector-effect: non-scaling-stroke; stroke-width: 2px; stroke: rgb(64, 64, 64); stroke-opacity: 1; fill: rgb(239, 85, 59); fill-opacity: 1;"/><path class="box" d="M69.06,150.3H74.94M69.06,185.84H74.94V119.83H69.06ZM72,185.84V245M72,119.83V45.02" style="vector-effect: non-scaling-stroke; stroke-width: 2px; stroke: rgb(64, 64, 64); stroke-opacity: 1; fill: rgb(239, 85, 59); fill-opacity: 1;"/><path class="mean" d="M69.06,151.72H74.94" style="fill: none; vector-effect: non-scaling-stroke; stroke-width: 2px; stroke-dasharray: 4px, 2px; stroke: rgb(64, 64, 64); stroke-opacity: 1;"/></g><g class="trace violins" style="opacity: 1;"><path class="violin" d="M120.06,272.17Q120.1,268.94 120.13,267.33C120.16,265.71 120.19,264.1 120.24,262.48C120.29,260.86 120.35,259.25 120.43,257.63C120.51,256.02 120.6,254.4 120.72,252.79C120.84,251.17 120.97,249.56 121.13,247.94C121.29,246.32 121.48,244.7 121.69,243.09C121.9,241.47 122.15,239.86 122.41,238.25C122.67,236.63 122.96,235.02 123.25,233.4C123.54,231.78 123.87,230.17 124.17,228.55C124.47,226.94 124.79,225.33 125.07,223.71C125.35,222.1 125.62,220.48 125.86,218.86C126.1,217.25 126.31,215.63 126.49,214.01C126.67,212.4 126.82,210.78 126.96,209.17C127.1,207.55 127.21,205.94 127.33,204.32C127.45,202.7 127.56,201.09 127.68,199.47C127.8,197.86 127.93,196.24 128.07,194.63C128.21,193.01 128.37,191.4 128.54,189.78C128.71,188.16 128.89,186.55 129.07,184.93C129.25,183.32 129.44,181.7 129.62,180.09C129.8,178.47 129.97,176.86 130.13,175.24C130.28,173.62 130.43,172.01 130.55,170.39C130.67,168.78 130.78,167.16 130.87,165.55C130.96,163.93 131.04,162.32 131.1,160.7C131.16,159.08 131.21,157.47 131.25,155.85C131.29,154.24 131.32,152.62 131.34,151.01C131.36,149.39 131.36,147.78 131.36,146.16C131.36,144.54 131.35,142.93 131.31,141.31C131.27,139.7 131.21,138.08 131.13,136.47C131.05,134.85 130.96,133.24 130.84,131.62C130.72,130 130.57,128.39 130.42,126.77C130.27,125.16 130.1,123.54 129.93,121.93C129.76,120.31 129.57,118.7 129.39,117.08C129.21,115.46 129.03,113.85 128.84,112.23C128.65,110.62 128.46,109 128.27,107.39C128.07,105.77 127.87,104.16 127.67,102.54C127.46,100.92 127.26,99.31 127.04,97.69C126.82,96.08 126.59,94.46 126.36,92.85C126.13,91.23 125.89,89.62 125.66,88C125.43,86.38 125.19,84.77 124.96,83.15C124.73,81.54 124.49,79.92 124.26,78.31C124.03,76.69 123.81,75.08 123.59,73.46C123.37,71.84 123.14,70.23 122.93,68.61C122.72,67 122.51,65.38 122.32,63.77C122.13,62.15 121.95,60.54 121.78,58.92C121.61,57.3 121.45,55.69 121.31,54.07C121.17,52.46 121.04,50.84 120.93,49.23C120.82,47.61 120.73,46 120.64,44.38C120.56,42.76 120.48,41.15 120.42,39.53C120.36,37.92 120.3,36.3 120.26,34.69C120.22,33.07 120.19,31.46 120.16,29.84C120.13,28.22 120.11,26.61 120.09,24.99C120.07,23.38 120.06,21.76 120.05,20.15Q120.04,18.53 120.02,15.3L119.98,15.3Q119.96,18.53 119.95,20.15C119.94,21.76 119.93,23.38 119.91,24.99C119.89,26.61 119.87,28.22 119.84,29.84C119.81,31.46 119.78,33.07 119.74,34.69C119.7,36.3 119.64,37.92 119.58,39.53C119.52,41.15 119.44,42.76 119.36,44.38C119.27,46 119.18,47.61 119.07,49.23C118.96,50.84 118.83,52.46 118.69,54.07C118.55,55.69 118.39,57.3 118.22,58.92C118.05,60.54 117.87,62.15 117.68,63.77C117.49,65.38 117.28,67 117.07,68.61C116.86,70.23 116.63,71.84 116.41,73.46C116.19,75.08 115.97,76.69 115.74,78.31C115.51,79.92 115.27,81.54 115.04,83.15C114.81,84.77 114.57,86.38 114.34,88C114.11,89.62 113.87,91.23 113.64,92.85C113.41,94.46 113.18,96.08 112.96,97.69C112.74,99.31 112.54,100.92 112.33,102.54C112.13,104.16 111.93,105.77 111.73,107.39C111.54,109 111.35,110.62 111.16,112.23C110.97,113.85 110.79,115.46 110.61,117.08C110.43,118.7 110.24,120.31 110.07,121.93C109.9,123.54 109.73,125.16 109.58,126.77C109.43,128.39 109.28,130 109.16,131.62C109.04,133.24 108.95,134.85 108.87,136.47C108.79,138.08 108.73,139.7 108.69,141.31C108.65,142.93 108.64,144.54 108.64,146.16C108.64,147.78 108.64,149.39 108.66,151.01C108.68,152.62 108.71,154.24 108.75,155.85C108.79,157.47 108.84,159.08 108.9,160.7C108.96,162.32 109.04,163.93 109.13,165.55C109.22,167.16 109.33,168.78 109.45,170.39C109.57,172.01 109.72,173.62 109.87,175.24C110.03,176.86 110.2,178.47 110.38,180.09C110.56,181.7 110.75,183.32 110.93,184.93C111.11,186.55 111.29,188.16 111.46,189.78C111.63,191.4 111.79,193.01 111.93,194.63C112.07,196.24 112.2,197.86 112.32,199.47C112.44,201.09 112.55,202.7 112.67,204.32C112.79,205.94 112.9,207.55 113.04,209.17C113.18,210.78 113.33,212.4 113.51,214.01C113.69,215.63 113.9,217.25 114.14,218.86C114.38,220.48 114.65,222.1 114.93,223.71C115.21,225.33 115.53,226.94 115.83,228.55C116.13,230.17 116.46,231.78 116.75,233.4C117.04,235.02 117.33,236.63 117.59,238.25C117.85,239.86 118.1,241.47 118.31,243.09C118.52,244.7 118.71,246.32 118.87,247.94C119.03,249.56 119.16,251.17 119.28,252.79C119.4,254.4 119.49,256.02 119.57,257.63C119.65,259.25 119.71,260.86 119.76,262.48C119.81,264.1 119.84,265.71 119.87,267.33Q119.9,268.94 119.94,272.17Z" style="vector-effect: non-scaling-stroke; stroke-width: 2px; stroke: rgb(64, 64, 64); stroke-opacity: 1; fill: rgb(0, 204, 150); fill-opacity: 1;"/><path class="box" d="M117.06,150.09H122.94M117.06,184.65H122.94V120.32H117.06ZM120,184.65V242.74M120,120.32V44.73" style="vector-effect: non-scaling-stroke; stroke-width: 2px; stroke: rgb(64, 64, 64); stroke-opacity: 1; fill: rgb(0, 204, 150); fill-opacity: 1;"/><path class="mean" d="M117.06,151.37H122.94" style="fill: none; vector-effect: non-scaling-stroke; stroke-width: 2px; stroke-dasharray: 4px, 2px; stroke: rgb(64, 64, 64); stroke-opacity: 1;"/></g><g class="trace violins" style="opacity: 1;"><path class="violin" d="M168.03,277.88Q168.05,274.65 168.06,273.03C168.07,271.42 168.09,269.8 168.11,268.19C168.14,266.58 168.17,264.96 168.21,263.35C168.25,261.74 168.3,260.12 168.37,258.51C168.44,256.9 168.52,255.28 168.62,253.67C168.72,252.06 168.84,250.44 168.99,248.83C169.14,247.22 169.31,245.6 169.51,243.99C169.71,242.38 169.94,240.76 170.19,239.15C170.44,237.54 170.71,235.92 170.99,234.31C171.27,232.7 171.59,231.08 171.89,229.47C172.19,227.86 172.5,226.24 172.79,224.63C173.08,223.02 173.38,221.41 173.64,219.79C173.9,218.18 174.15,216.56 174.37,214.94C174.59,213.33 174.79,211.71 174.97,210.1C175.15,208.49 175.31,206.87 175.47,205.26C175.63,203.65 175.76,202.03 175.91,200.42C176.05,198.81 176.2,197.19 176.34,195.58C176.48,193.97 176.63,192.35 176.77,190.74C176.92,189.13 177.07,187.51 177.21,185.9C177.35,184.29 177.49,182.67 177.63,181.06C177.76,179.45 177.9,177.83 178.02,176.22C178.14,174.61 178.26,172.99 178.36,171.38C178.46,169.77 178.55,168.15 178.64,166.54C178.73,164.93 178.81,163.31 178.89,161.7C178.97,160.08 179.04,158.47 179.11,156.85C179.18,155.24 179.24,153.62 179.3,152.01C179.36,150.4 179.42,148.78 179.45,147.17C179.48,145.56 179.5,143.94 179.49,142.33C179.48,140.72 179.44,139.1 179.38,137.49C179.31,135.88 179.22,134.26 179.1,132.65C178.98,131.04 178.83,129.42 178.67,127.81C178.51,126.2 178.32,124.58 178.13,122.97C177.94,121.36 177.74,119.74 177.54,118.13C177.34,116.52 177.15,114.9 176.95,113.29C176.75,111.68 176.55,110.06 176.35,108.45C176.15,106.84 175.95,105.22 175.74,103.61C175.53,102 175.3,100.38 175.08,98.77C174.86,97.15 174.63,95.54 174.4,93.92C174.17,92.31 173.93,90.69 173.7,89.08C173.47,87.47 173.23,85.85 173,84.24C172.77,82.63 172.54,81.01 172.31,79.4C172.08,77.79 171.85,76.17 171.63,74.56C171.41,72.95 171.19,71.33 170.98,69.72C170.77,68.11 170.56,66.49 170.37,64.88C170.18,63.27 169.99,61.65 169.82,60.04C169.65,58.43 169.49,56.81 169.35,55.2C169.21,53.59 169.08,51.97 168.96,50.36C168.85,48.75 168.75,47.13 168.66,45.52C168.57,43.91 168.49,42.29 168.43,40.68C168.36,39.06 168.32,37.45 168.27,35.83C168.23,34.22 168.19,32.6 168.16,30.99C168.13,29.38 168.11,27.76 168.09,26.15C168.07,24.54 168.06,22.92 168.05,21.31Q168.04,19.7 168.02,16.47L167.98,16.47Q167.96,19.7 167.95,21.31C167.94,22.92 167.93,24.54 167.91,26.15C167.89,27.76 167.87,29.38 167.84,30.99C167.81,32.6 167.77,34.22 167.73,35.83C167.68,37.45 167.64,39.06 167.57,40.68C167.51,42.29 167.43,43.91 167.34,45.52C167.25,47.13 167.15,48.75 167.04,50.36C166.92,51.97 166.79,53.59 166.65,55.2C166.51,56.81 166.35,58.43 166.18,60.04C166.01,61.65 165.82,63.27 165.63,64.88C165.44,66.49 165.23,68.11 165.02,69.72C164.81,71.33 164.59,72.95 164.37,74.56C164.15,76.17 163.92,77.79 163.69,79.4C163.46,81.01 163.23,82.63 163,84.24C162.77,85.85 162.53,87.47 162.3,89.08C162.07,90.69 161.83,92.31 161.6,93.92C161.37,95.54 161.14,97.15 160.92,98.77C160.7,100.38 160.47,102 160.26,103.61C160.05,105.22 159.85,106.84 159.65,108.45C159.45,110.06 159.25,111.68 159.05,113.29C158.85,114.9 158.66,116.52 158.46,118.13C158.26,119.74 158.06,121.36 157.87,122.97C157.68,124.58 157.49,126.2 157.33,127.81C157.17,129.42 157.02,131.04 156.9,132.65C156.78,134.26 156.69,135.88 156.62,137.49C156.56,139.1 156.52,140.72 156.51,142.33C156.5,143.94 156.52,145.56 156.55,147.17C156.58,148.78 156.64,150.4 156.7,152.01C156.76,153.62 156.82,155.24 156.89,156.85C156.96,158.47 157.03,160.08 157.11,161.7C157.19,163.31 157.27,164.93 157.36,166.54C157.45,168.15 157.54,169.77 157.64,171.38C157.74,172.99 157.86,174.61 157.98,176.22C158.1,177.83 158.24,179.45 158.37,181.06C158.51,182.67 158.65,184.29 158.79,185.9C158.93,187.51 159.08,189.13 159.23,190.74C159.37,192.35 159.52,193.97 159.66,195.58C159.8,197.19 159.95,198.81 160.09,200.42C160.24,202.03 160.37,203.65 160.53,205.26C160.69,206.87 160.85,208.49 161.03,210.1C161.21,211.71 161.41,213.33 161.63,214.94C161.85,216.56 162.1,218.18 162.36,219.79C162.62,221.41 162.92,223.02 163.21,224.63C163.5,226.24 163.81,227.86 164.11,229.47C164.41,231.08 164.73,232.7 165.01,234.31C165.29,235.92 165.56,237.54 165.81,239.15C166.06,240.76 166.29,242.38 166.49,243.99C166.69,245.6 166.86,247.22 167.01,248.83C167.16,250.44 167.28,252.06 167.38,253.67C167.48,255.28 167.56,256.9 167.63,258.51C167.7,260.12 167.75,261.74 167.79,263.35C167.83,264.96 167.86,266.58 167.89,268.19C167.91,269.8 167.93,271.42 167.94,273.03Q167.95,274.65 167.97,277.88Z" style="vector-effect: non-scaling-stroke; stroke-width: 2px; stroke: rgb(64, 64, 64); stroke-opacity: 1; fill: rgb(171, 99, 250); fill-opacity: 1;"/><path class="box" d="M165.06,150.39H170.94M165.06,185.82H170.94V120.88H165.06ZM168,185.82V248.66M168,120.88V45.68" style="vector-effect: non-scaling-stroke; stroke-width: 2px; stroke: rgb(64, 64, 64); stroke-opacity: 1; fill: rgb(171, 99, 250); fill-opacity: 1;"/><path class="mean" d="M165.06,151.68H170.94" style="fill: none; vector-effect: non-scaling-stroke; stroke-width: 2px; stroke-dasharray: 4px, 2px; stroke: rgb(64, 64, 64); stroke-opacity: 1;"/></g><g class="trace violins" style="opacity: 1;"><path class="violin" d="M216.06,272.47Q216.09,269.24 216.12,267.62C216.15,266 216.18,264.39 216.23,262.77C216.28,261.15 216.33,259.54 216.41,257.92C216.49,256.3 216.58,254.69 216.7,253.07C216.82,251.45 216.95,249.84 217.11,248.22C217.28,246.6 217.47,244.98 217.69,243.37C217.91,241.75 218.17,240.13 218.44,238.52C218.72,236.9 219.03,235.29 219.34,233.67C219.66,232.05 220.01,230.43 220.33,228.81C220.65,227.19 220.98,225.58 221.28,223.96C221.57,222.35 221.86,220.73 222.1,219.11C222.34,217.5 222.54,215.88 222.72,214.26C222.9,212.64 223.03,211.03 223.16,209.41C223.29,207.79 223.38,206.18 223.48,204.56C223.58,202.94 223.66,201.33 223.76,199.71C223.86,198.09 223.98,196.48 224.1,194.86C224.22,193.24 224.35,191.63 224.5,190.01C224.65,188.39 224.82,186.78 224.98,185.16C225.14,183.54 225.32,181.93 225.48,180.31C225.64,178.69 225.8,177.07 225.95,175.45C226.1,173.83 226.24,172.22 226.36,170.6C226.48,168.98 226.59,167.37 226.69,165.75C226.79,164.13 226.88,162.52 226.95,160.9C227.02,159.28 227.08,157.67 227.13,156.05C227.18,154.43 227.23,152.82 227.26,151.2C227.29,149.58 227.32,147.97 227.32,146.35C227.32,144.73 227.32,143.12 227.29,141.5C227.26,139.88 227.2,138.27 227.13,136.65C227.05,135.03 226.96,133.42 226.84,131.8C226.72,130.18 226.58,128.56 226.43,126.94C226.28,125.32 226.11,123.71 225.94,122.09C225.77,120.47 225.57,118.86 225.39,117.24C225.2,115.62 225.02,114.01 224.83,112.39C224.64,110.77 224.45,109.16 224.25,107.54C224.05,105.92 223.86,104.31 223.65,102.69C223.44,101.07 223.22,99.46 223,97.84C222.78,96.22 222.55,94.61 222.32,92.99C222.09,91.37 221.85,89.76 221.62,88.14C221.38,86.52 221.14,84.91 220.91,83.29C220.68,81.67 220.45,80.06 220.22,78.44C219.99,76.82 219.76,75.2 219.54,73.58C219.32,71.96 219.11,70.35 218.9,68.73C218.69,67.11 218.48,65.5 218.29,63.88C218.1,62.26 217.93,60.65 217.76,59.03C217.6,57.41 217.44,55.8 217.3,54.18C217.16,52.56 217.03,50.95 216.92,49.33C216.81,47.71 216.71,46.1 216.63,44.48C216.55,42.86 216.48,41.25 216.42,39.63C216.36,38.01 216.3,36.4 216.26,34.78C216.22,33.16 216.19,31.55 216.16,29.93C216.13,28.31 216.11,26.69 216.09,25.07C216.07,23.45 216.06,21.84 216.05,20.22Q216.04,18.6 216.02,15.37L215.98,15.37Q215.96,18.6 215.95,20.22C215.94,21.84 215.93,23.45 215.91,25.07C215.89,26.69 215.87,28.31 215.84,29.93C215.81,31.55 215.78,33.16 215.74,34.78C215.7,36.4 215.64,38.01 215.58,39.63C215.52,41.25 215.45,42.86 215.37,44.48C215.29,46.1 215.19,47.71 215.08,49.33C214.97,50.95 214.84,52.56 214.7,54.18C214.56,55.8 214.4,57.41 214.24,59.03C214.07,60.65 213.9,62.26 213.71,63.88C213.52,65.5 213.31,67.11 213.1,68.73C212.89,70.35 212.68,71.96 212.46,73.58C212.24,75.2 212.01,76.82 211.78,78.44C211.55,80.06 211.32,81.67 211.09,83.29C210.86,84.91 210.62,86.52 210.38,88.14C210.15,89.76 209.91,91.37 209.68,92.99C209.45,94.61 209.22,96.22 209,97.84C208.78,99.46 208.56,101.07 208.35,102.69C208.14,104.31 207.95,105.92 207.75,107.54C207.55,109.16 207.36,110.77 207.17,112.39C206.98,114.01 206.8,115.62 206.61,117.24C206.43,118.86 206.23,120.47 206.06,122.09C205.89,123.71 205.72,125.32 205.57,126.94C205.42,128.56 205.28,130.18 205.16,131.8C205.04,133.42 204.95,135.03 204.87,136.65C204.8,138.27 204.74,139.88 204.71,141.5C204.68,143.12 204.68,144.73 204.68,146.35C204.68,147.97 204.71,149.58 204.74,151.2C204.77,152.82 204.82,154.43 204.87,156.05C204.92,157.67 204.98,159.28 205.05,160.9C205.12,162.52 205.21,164.13 205.31,165.75C205.41,167.37 205.52,168.98 205.64,170.6C205.76,172.22 205.9,173.83 206.05,175.45C206.2,177.07 206.36,178.69 206.52,180.31C206.68,181.93 206.86,183.54 207.02,185.16C207.18,186.78 207.35,188.39 207.5,190.01C207.65,191.63 207.78,193.24 207.9,194.86C208.02,196.48 208.14,198.09 208.24,199.71C208.34,201.33 208.42,202.94 208.52,204.56C208.62,206.18 208.71,207.79 208.84,209.41C208.97,211.03 209.1,212.64 209.28,214.26C209.46,215.88 209.66,217.5 209.9,219.11C210.14,220.73 210.43,222.35 210.72,223.96C211.02,225.58 211.35,227.19 211.67,228.81C211.99,230.43 212.34,232.05 212.66,233.67C212.97,235.29 213.28,236.9 213.56,238.52C213.83,240.13 214.09,241.75 214.31,243.37C214.53,244.98 214.72,246.6 214.89,248.22C215.05,249.84 215.18,251.45 215.3,253.07C215.42,254.69 215.51,256.3 215.59,257.92C215.67,259.54 215.72,261.15 215.77,262.77C215.82,264.39 215.85,266 215.88,267.62Q215.91,269.24 215.94,272.47Z" style="vector-effect: non-scaling-stroke; stroke-width: 2px; stroke: rgb(64, 64, 64); stroke-opacity: 1; fill: rgb(255, 161, 90); fill-opacity: 1;"/><path class="box" d="M213.06,151.37H218.94M213.06,185.05H218.94V121.01H213.06ZM216,185.05V242.94M216,121.01V44.91" style="vector-effect: non-scaling-stroke; stroke-width: 2px; stroke: rgb(64, 64, 64); stroke-opacity: 1; fill: rgb(255, 161, 90); fill-opacity: 1;"/><path class="mean" d="M213.06,151.88H218.94" style="fill: none; vector-effect: non-scaling-stroke; stroke-width: 2px; stroke-dasharray: 4px, 2px; stroke: rgb(64, 64, 64); stroke-opacity: 1;"/></g><g class="trace violins" style="opacity: 1;"><path class="violin" d="M264.02,290.7Q264.02,287.5 264.03,285.9C264.04,284.3 264.05,282.7 264.06,281.1C264.07,279.5 264.09,277.9 264.1,276.3C264.12,274.7 264.13,273.1 264.15,271.5C264.17,269.9 264.19,268.3 264.22,266.7C264.25,265.1 264.28,263.5 264.33,261.9C264.38,260.3 264.44,258.7 264.52,257.1C264.6,255.5 264.68,253.89 264.8,252.29C264.92,250.69 265.05,249.09 265.22,247.49C265.39,245.89 265.59,244.29 265.8,242.69C266.02,241.09 266.25,239.49 266.51,237.89C266.77,236.29 267.05,234.69 267.34,233.09C267.63,231.49 267.93,229.89 268.23,228.29C268.53,226.69 268.84,225.09 269.12,223.49C269.4,221.89 269.68,220.29 269.93,218.69C270.18,217.09 270.42,215.49 270.63,213.89C270.84,212.29 271.04,210.69 271.21,209.09C271.38,207.49 271.53,205.89 271.67,204.29C271.81,202.69 271.93,201.09 272.06,199.49C272.18,197.89 272.3,196.29 272.42,194.69C272.54,193.09 272.66,191.49 272.79,189.89C272.92,188.29 273.06,186.68 273.2,185.08C273.34,183.48 273.48,181.88 273.63,180.28C273.78,178.68 273.95,177.08 274.1,175.48C274.25,173.88 274.4,172.28 274.55,170.68C274.7,169.08 274.85,167.48 274.98,165.88C275.11,164.28 275.23,162.68 275.33,161.08C275.43,159.48 275.52,157.88 275.59,156.28C275.66,154.68 275.7,153.08 275.73,151.48C275.76,149.88 275.77,148.28 275.76,146.68C275.75,145.08 275.71,143.48 275.65,141.88C275.59,140.28 275.5,138.68 275.39,137.08C275.28,135.48 275.15,133.88 275.01,132.28C274.86,130.68 274.69,129.08 274.52,127.48C274.35,125.88 274.16,124.28 273.97,122.68C273.78,121.08 273.57,119.48 273.37,117.88C273.17,116.28 272.96,114.67 272.75,113.07C272.54,111.47 272.32,109.87 272.1,108.27C271.88,106.67 271.65,105.07 271.42,103.47C271.19,101.87 270.96,100.27 270.73,98.67C270.5,97.07 270.28,95.47 270.05,93.87C269.82,92.27 269.59,90.67 269.37,89.07C269.15,87.47 268.94,85.87 268.72,84.27C268.51,82.67 268.29,81.07 268.08,79.47C267.87,77.87 267.66,76.27 267.45,74.67C267.24,73.07 267.03,71.47 266.83,69.87C266.63,68.27 266.42,66.67 266.23,65.07C266.04,63.47 265.86,61.87 265.69,60.27C265.52,58.67 265.37,57.07 265.23,55.47C265.09,53.87 264.97,52.27 264.86,50.67C264.75,49.07 264.66,47.46 264.58,45.86C264.5,44.26 264.44,42.66 264.38,41.06C264.32,39.46 264.28,37.86 264.24,36.26C264.2,34.66 264.18,33.06 264.15,31.46C264.12,29.86 264.1,28.26 264.08,26.66C264.06,25.06 264.06,23.46 264.05,21.86Q264.04,20.26 264.02,17.06L263.98,17.06Q263.96,20.26 263.95,21.86C263.94,23.46 263.94,25.06 263.92,26.66C263.9,28.26 263.88,29.86 263.85,31.46C263.82,33.06 263.8,34.66 263.76,36.26C263.72,37.86 263.68,39.46 263.62,41.06C263.56,42.66 263.5,44.26 263.42,45.86C263.34,47.46 263.25,49.07 263.14,50.67C263.03,52.27 262.91,53.87 262.77,55.47C262.63,57.07 262.48,58.67 262.31,60.27C262.14,61.87 261.96,63.47 261.77,65.07C261.58,66.67 261.37,68.27 261.17,69.87C260.97,71.47 260.76,73.07 260.55,74.67C260.34,76.27 260.13,77.87 259.92,79.47C259.71,81.07 259.49,82.67 259.28,84.27C259.06,85.87 258.85,87.47 258.63,89.07C258.41,90.67 258.18,92.27 257.95,93.87C257.72,95.47 257.5,97.07 257.27,98.67C257.04,100.27 256.81,101.87 256.58,103.47C256.35,105.07 256.12,106.67 255.9,108.27C255.68,109.87 255.46,111.47 255.25,113.07C255.04,114.67 254.83,116.28 254.63,117.88C254.43,119.48 254.22,121.08 254.03,122.68C253.84,124.28 253.65,125.88 253.48,127.48C253.31,129.08 253.14,130.68 252.99,132.28C252.85,133.88 252.72,135.48 252.61,137.08C252.5,138.68 252.41,140.28 252.35,141.88C252.29,143.48 252.25,145.08 252.24,146.68C252.23,148.28 252.24,149.88 252.27,151.48C252.3,153.08 252.34,154.68 252.41,156.28C252.48,157.88 252.57,159.48 252.67,161.08C252.77,162.68 252.89,164.28 253.02,165.88C253.15,167.48 253.3,169.08 253.45,170.68C253.6,172.28 253.75,173.88 253.9,175.48C254.05,177.08 254.22,178.68 254.37,180.28C254.52,181.88 254.66,183.48 254.8,185.08C254.94,186.68 255.08,188.29 255.21,189.89C255.34,191.49 255.46,193.09 255.58,194.69C255.7,196.29 255.82,197.89 255.94,199.49C256.07,201.09 256.19,202.69 256.33,204.29C256.47,205.89 256.62,207.49 256.79,209.09C256.96,210.69 257.16,212.29 257.37,213.89C257.58,215.49 257.82,217.09 258.07,218.69C258.32,220.29 258.6,221.89 258.88,223.49C259.16,225.09 259.47,226.69 259.77,228.29C260.07,229.89 260.37,231.49 260.66,233.09C260.95,234.69 261.23,236.29 261.49,237.89C261.75,239.49 261.98,241.09 262.2,242.69C262.41,244.29 262.61,245.89 262.78,247.49C262.95,249.09 263.08,250.69 263.2,252.29C263.32,253.89 263.4,255.5 263.48,257.1C263.56,258.7 263.62,260.3 263.67,261.9C263.72,263.5 263.75,265.1 263.78,266.7C263.81,268.3 263.83,269.9 263.85,271.5C263.87,273.1 263.88,274.7 263.9,276.3C263.91,277.9 263.93,279.5 263.94,281.1C263.95,282.7 263.96,284.3 263.97,285.9Q263.98,287.5 263.98,290.7Z" style="vector-effect: non-scaling-stroke; stroke-width: 2px; stroke: rgb(64, 64, 64); stroke-opacity: 1; fill: rgb(25, 211, 243); fill-opacity: 1;"/><path class="box" d="M261.06,152.07H266.94M261.06,187.47H266.94V122.1H261.06ZM264,187.47V261.58M264,122.1V46.18" style="vector-effect: non-scaling-stroke; stroke-width: 2px; stroke: rgb(64, 64, 64); stroke-opacity: 1; fill: rgb(25, 211, 243); fill-opacity: 1;"/><path class="mean" d="M261.06,153.07H266.94" style="fill: none; vector-effect: non-scaling-stroke; stroke-width: 2px; stroke-dasharray: 4px, 2px; stroke: rgb(64, 64, 64); stroke-opacity: 1;"/></g><g class="trace violins" style="opacity: 1;"><path class="violin" d="M312.03,276.52Q312.05,273.3 312.07,271.69C312.09,270.08 312.1,268.47 312.13,266.86C312.16,265.25 312.2,263.63 312.25,262.02C312.3,260.41 312.35,258.8 312.43,257.19C312.51,255.58 312.61,253.97 312.73,252.36C312.85,250.75 312.99,249.14 313.16,247.53C313.33,245.92 313.53,244.3 313.76,242.69C313.99,241.08 314.25,239.47 314.53,237.86C314.81,236.25 315.13,234.64 315.44,233.03C315.75,231.42 316.08,229.8 316.4,228.19C316.71,226.58 317.04,224.97 317.33,223.36C317.62,221.75 317.9,220.14 318.14,218.53C318.38,216.92 318.6,215.31 318.79,213.7C318.98,212.09 319.14,210.47 319.29,208.86C319.44,207.25 319.57,205.64 319.7,204.03C319.83,202.42 319.95,200.81 320.07,199.2C320.2,197.59 320.32,195.98 320.45,194.37C320.58,192.76 320.72,191.14 320.86,189.53C321,187.92 321.14,186.31 321.29,184.7C321.44,183.09 321.6,181.48 321.75,179.87C321.9,178.26 322.05,176.64 322.19,175.03C322.33,173.42 322.48,171.81 322.61,170.2C322.74,168.59 322.86,166.98 322.97,165.37C323.08,163.76 323.18,162.15 323.27,160.54C323.36,158.93 323.43,157.31 323.49,155.7C323.55,154.09 323.59,152.48 323.61,150.87C323.63,149.26 323.64,147.65 323.62,146.04C323.6,144.43 323.56,142.81 323.49,141.2C323.42,139.59 323.33,137.98 323.22,136.37C323.11,134.76 322.96,133.15 322.81,131.54C322.66,129.93 322.49,128.32 322.31,126.71C322.13,125.1 321.93,123.48 321.74,121.87C321.55,120.26 321.35,118.65 321.16,117.04C320.96,115.43 320.77,113.82 320.57,112.21C320.37,110.6 320.17,108.99 319.96,107.38C319.75,105.77 319.54,104.15 319.33,102.54C319.12,100.93 318.9,99.32 318.68,97.71C318.46,96.1 318.23,94.49 318.01,92.88C317.79,91.27 317.56,89.65 317.34,88.04C317.12,86.43 316.89,84.82 316.67,83.21C316.45,81.6 316.23,79.99 316.01,78.38C315.79,76.77 315.56,75.16 315.35,73.55C315.13,71.94 314.92,70.32 314.72,68.71C314.52,67.1 314.32,65.49 314.14,63.88C313.96,62.27 313.78,60.66 313.62,59.05C313.46,57.44 313.31,55.83 313.18,54.22C313.05,52.61 312.93,50.99 312.83,49.38C312.73,47.77 312.64,46.16 312.56,44.55C312.48,42.94 312.42,41.33 312.37,39.72C312.32,38.11 312.28,36.49 312.24,34.88C312.2,33.27 312.17,31.66 312.14,30.05C312.11,28.44 312.1,26.83 312.08,25.22C312.06,23.61 312.05,22 312.04,20.39Q312.03,18.78 312.02,15.55L311.98,15.55Q311.97,18.78 311.96,20.39C311.95,22 311.94,23.61 311.92,25.22C311.9,26.83 311.89,28.44 311.86,30.05C311.83,31.66 311.8,33.27 311.76,34.88C311.72,36.49 311.68,38.11 311.63,39.72C311.58,41.33 311.52,42.94 311.44,44.55C311.36,46.16 311.27,47.77 311.17,49.38C311.07,50.99 310.95,52.61 310.82,54.22C310.69,55.83 310.54,57.44 310.38,59.05C310.22,60.66 310.04,62.27 309.86,63.88C309.68,65.49 309.48,67.1 309.28,68.71C309.08,70.32 308.87,71.94 308.65,73.55C308.44,75.16 308.21,76.77 307.99,78.38C307.77,79.99 307.55,81.6 307.33,83.21C307.11,84.82 306.88,86.43 306.66,88.04C306.44,89.65 306.21,91.27 305.99,92.88C305.77,94.49 305.54,96.1 305.32,97.71C305.1,99.32 304.88,100.93 304.67,102.54C304.46,104.15 304.25,105.77 304.04,107.38C303.83,108.99 303.63,110.6 303.43,112.21C303.23,113.82 303.04,115.43 302.84,117.04C302.65,118.65 302.45,120.26 302.26,121.87C302.07,123.48 301.87,125.1 301.69,126.71C301.51,128.32 301.34,129.93 301.19,131.54C301.04,133.15 300.89,134.76 300.78,136.37C300.67,137.98 300.58,139.59 300.51,141.2C300.44,142.81 300.4,144.43 300.38,146.04C300.36,147.65 300.37,149.26 300.39,150.87C300.41,152.48 300.45,154.09 300.51,155.7C300.57,157.31 300.64,158.93 300.73,160.54C300.82,162.15 300.92,163.76 301.03,165.37C301.14,166.98 301.26,168.59 301.39,170.2C301.52,171.81 301.67,173.42 301.81,175.03C301.95,176.64 302.1,178.26 302.25,179.87C302.4,181.48 302.56,183.09 302.71,184.7C302.86,186.31 303,187.92 303.14,189.53C303.28,191.14 303.42,192.76 303.55,194.37C303.68,195.98 303.8,197.59 303.93,199.2C304.05,200.81 304.17,202.42 304.3,204.03C304.43,205.64 304.56,207.25 304.71,208.86C304.86,210.47 305.02,212.09 305.21,213.7C305.4,215.31 305.62,216.92 305.86,218.53C306.1,220.14 306.38,221.75 306.67,223.36C306.96,224.97 307.29,226.58 307.6,228.19C307.92,229.8 308.25,231.42 308.56,233.03C308.87,234.64 309.19,236.25 309.47,237.86C309.75,239.47 310.01,241.08 310.24,242.69C310.47,244.3 310.67,245.92 310.84,247.53C311.01,249.14 311.15,250.75 311.27,252.36C311.39,253.97 311.49,255.58 311.57,257.19C311.65,258.8 311.7,260.41 311.75,262.02C311.8,263.63 311.84,265.25 311.87,266.86C311.9,268.47 311.91,270.08 311.93,271.69Q311.95,273.3 311.97,276.52Z" style="vector-effect: non-scaling-stroke; stroke-width: 2px; stroke: rgb(64, 64, 64); stroke-opacity: 1; fill: rgb(255, 102, 146); fill-opacity: 1;"/><path class="box" d="M309.06,151.17H314.94M309.06,186.71H314.94V121.35H309.06ZM312,186.71V247.36M312,121.35V44.71" style="vector-effect: non-scaling-stroke; stroke-width: 2px; stroke: rgb(64, 64, 64); stroke-opacity: 1; fill: rgb(255, 102, 146); fill-opacity: 1;"/><path class="mean" d="M309.06,152.84H314.94" style="fill: none; vector-effect: non-scaling-stroke; stroke-width: 2px; stroke-dasharray: 4px, 2px; stroke: rgb(64, 64, 64); stroke-opacity: 1;"/></g><g class="trace violins" style="opacity: 1;"><path class="violin" d="M360.03,277.73Q360.05,274.5 360.07,272.88C360.09,271.26 360.11,269.65 360.14,268.03C360.17,266.41 360.21,264.8 360.26,263.18C360.31,261.57 360.37,259.95 360.45,258.34C360.53,256.72 360.62,255.11 360.74,253.49C360.86,251.87 360.99,250.26 361.15,248.64C361.31,247.02 361.51,245.41 361.72,243.79C361.93,242.17 362.17,240.55 362.43,238.94C362.69,237.32 362.99,235.71 363.29,234.09C363.59,232.47 363.91,230.86 364.22,229.24C364.53,227.62 364.85,226.01 365.14,224.39C365.43,222.77 365.72,221.16 365.97,219.54C366.22,217.93 366.45,216.31 366.65,214.69C366.85,213.07 367.02,211.46 367.18,209.84C367.34,208.22 367.47,206.61 367.6,204.99C367.73,203.37 367.85,201.76 367.97,200.14C368.1,198.52 368.22,196.91 368.35,195.29C368.48,193.67 368.62,192.06 368.76,190.44C368.9,188.82 369.06,187.21 369.21,185.59C369.36,183.97 369.53,182.36 369.68,180.74C369.83,179.12 369.99,177.51 370.13,175.89C370.27,174.27 370.41,172.66 370.54,171.04C370.67,169.42 370.79,167.81 370.9,166.19C371.01,164.57 371.12,162.96 371.21,161.34C371.3,159.72 371.38,158.11 371.45,156.49C371.52,154.87 371.58,153.26 371.62,151.64C371.66,150.02 371.68,148.41 371.68,146.79C371.68,145.17 371.65,143.56 371.6,141.94C371.55,140.32 371.46,138.71 371.35,137.09C371.24,135.47 371.09,133.86 370.93,132.24C370.77,130.62 370.59,129.01 370.4,127.39C370.21,125.77 370,124.16 369.79,122.54C369.58,120.92 369.37,119.31 369.16,117.69C368.95,116.07 368.75,114.46 368.54,112.84C368.33,111.22 368.13,109.61 367.92,107.99C367.71,106.37 367.5,104.76 367.29,103.14C367.08,101.52 366.86,99.91 366.65,98.29C366.43,96.67 366.22,95.06 366,93.44C365.78,91.82 365.57,90.21 365.35,88.59C365.13,86.97 364.92,85.36 364.7,83.74C364.49,82.12 364.27,80.51 364.06,78.89C363.85,77.27 363.63,75.66 363.42,74.04C363.21,72.42 362.99,70.81 362.79,69.19C362.59,67.58 362.39,65.96 362.2,64.35C362.01,62.73 361.84,61.12 361.67,59.5C361.51,57.88 361.35,56.27 361.21,54.65C361.07,53.03 360.96,51.42 360.85,49.8C360.75,48.18 360.66,46.57 360.58,44.95C360.5,43.33 360.44,41.72 360.38,40.1C360.32,38.48 360.28,36.87 360.24,35.25C360.2,33.63 360.18,32.02 360.15,30.4C360.12,28.78 360.1,27.17 360.08,25.55C360.06,23.93 360.05,22.32 360.04,20.7Q360.03,19.08 360.02,15.85L359.98,15.85Q359.97,19.08 359.96,20.7C359.95,22.32 359.94,23.93 359.92,25.55C359.9,27.17 359.88,28.78 359.85,30.4C359.82,32.02 359.8,33.63 359.76,35.25C359.72,36.87 359.68,38.48 359.62,40.1C359.56,41.72 359.5,43.33 359.42,44.95C359.34,46.57 359.25,48.18 359.15,49.8C359.04,51.42 358.93,53.03 358.79,54.65C358.65,56.27 358.49,57.88 358.33,59.5C358.16,61.12 357.99,62.73 357.8,64.35C357.61,65.96 357.41,67.58 357.21,69.19C357.01,70.81 356.79,72.42 356.58,74.04C356.37,75.66 356.15,77.27 355.94,78.89C355.73,80.51 355.51,82.12 355.3,83.74C355.08,85.36 354.87,86.97 354.65,88.59C354.43,90.21 354.22,91.82 354,93.44C353.78,95.06 353.57,96.67 353.35,98.29C353.14,99.91 352.92,101.52 352.71,103.14C352.5,104.76 352.29,106.37 352.08,107.99C351.87,109.61 351.67,111.22 351.46,112.84C351.25,114.46 351.05,116.07 350.84,117.69C350.63,119.31 350.42,120.92 350.21,122.54C350,124.16 349.79,125.77 349.6,127.39C349.41,129.01 349.23,130.62 349.07,132.24C348.91,133.86 348.76,135.47 348.65,137.09C348.54,138.71 348.45,140.32 348.4,141.94C348.35,143.56 348.32,145.17 348.32,146.79C348.32,148.41 348.34,150.02 348.38,151.64C348.42,153.26 348.48,154.87 348.55,156.49C348.62,158.11 348.7,159.72 348.79,161.34C348.88,162.96 348.99,164.57 349.1,166.19C349.21,167.81 349.33,169.42 349.46,171.04C349.59,172.66 349.73,174.27 349.87,175.89C350.01,177.51 350.17,179.12 350.32,180.74C350.47,182.36 350.64,183.97 350.79,185.59C350.94,187.21 351.1,188.82 351.24,190.44C351.38,192.06 351.52,193.67 351.65,195.29C351.78,196.91 351.9,198.52 352.03,200.14C352.15,201.76 352.27,203.37 352.4,204.99C352.53,206.61 352.66,208.22 352.82,209.84C352.98,211.46 353.15,213.07 353.35,214.69C353.55,216.31 353.78,217.93 354.03,219.54C354.28,221.16 354.57,222.77 354.86,224.39C355.15,226.01 355.47,227.62 355.78,229.24C356.09,230.86 356.41,232.47 356.71,234.09C357.01,235.71 357.31,237.32 357.57,238.94C357.83,240.55 358.07,242.17 358.28,243.79C358.49,245.41 358.69,247.02 358.85,248.64C359.01,250.26 359.14,251.87 359.26,253.49C359.38,255.11 359.47,256.72 359.55,258.34C359.63,259.95 359.69,261.57 359.74,263.18C359.79,264.8 359.83,266.41 359.86,268.03C359.89,269.65 359.91,271.26 359.93,272.88Q359.95,274.5 359.97,277.73Z" style="vector-effect: non-scaling-stroke; stroke-width: 2px; stroke: rgb(64, 64, 64); stroke-opacity: 1; fill: rgb(182, 232, 128); fill-opacity: 1;"/><path class="box" d="M357.06,150.91H362.94M357.06,186.62H362.94V122.39H357.06ZM360,186.62V248.49M360,122.39V45.09" style="vector-effect: non-scaling-stroke; stroke-width: 2px; stroke: rgb(64, 64, 64); stroke-opacity: 1; fill: rgb(182, 232, 128); fill-opacity: 1;"/><path class="mean" d="M357.06,153.15H362.94" style="fill: none; vector-effect: non-scaling-stroke; stroke-width: 2px; stroke-dasharray: 4px, 2px; stroke: rgb(64, 64, 64); stroke-opacity: 1;"/></g><g class="trace violins" style="opacity: 1;"><path class="violin" d="M408.05,274.19Q408.08,270.94 408.11,269.31C408.14,267.69 408.17,266.06 408.22,264.44C408.27,262.81 408.32,261.19 408.4,259.56C408.48,257.93 408.57,256.31 408.68,254.68C408.79,253.05 408.92,251.42 409.08,249.8C409.24,248.17 409.42,246.55 409.63,244.93C409.84,243.3 410.07,241.68 410.32,240.05C410.57,238.42 410.85,236.8 411.13,235.17C411.41,233.54 411.72,231.92 412.01,230.29C412.3,228.67 412.61,227.05 412.89,225.42C413.17,223.8 413.45,222.17 413.7,220.54C413.95,218.91 414.18,217.29 414.39,215.66C414.6,214.03 414.78,212.41 414.95,210.78C415.12,209.16 415.27,207.53 415.42,205.91C415.57,204.28 415.7,202.66 415.84,201.03C415.98,199.4 416.11,197.78 416.25,196.15C416.39,194.52 416.53,192.9 416.67,191.27C416.81,189.64 416.95,188.02 417.09,186.39C417.23,184.77 417.39,183.14 417.53,181.52C417.68,179.89 417.82,178.27 417.96,176.64C418.1,175.01 418.25,173.39 418.38,171.76C418.51,170.13 418.64,168.51 418.76,166.88C418.88,165.26 418.99,163.63 419.08,162.01C419.18,160.38 419.26,158.76 419.33,157.13C419.4,155.5 419.45,153.88 419.48,152.25C419.51,150.62 419.54,149 419.53,147.37C419.52,145.75 419.5,144.12 419.45,142.5C419.4,140.87 419.33,139.25 419.24,137.62C419.15,135.99 419.02,134.37 418.89,132.74C418.75,131.11 418.59,129.49 418.43,127.86C418.27,126.24 418.09,124.61 417.91,122.99C417.73,121.36 417.54,119.74 417.35,118.11C417.16,116.48 416.97,114.86 416.77,113.23C416.57,111.6 416.37,109.98 416.17,108.35C415.96,106.72 415.76,105.1 415.54,103.47C415.33,101.85 415.1,100.22 414.88,98.6C414.66,96.97 414.43,95.35 414.2,93.72C413.98,92.09 413.75,90.47 413.53,88.84C413.31,87.21 413.08,85.59 412.86,83.96C412.64,82.34 412.42,80.71 412.2,79.09C411.98,77.46 411.77,75.84 411.55,74.21C411.33,72.58 411.11,70.96 410.9,69.33C410.69,67.7 410.48,66.08 410.28,64.45C410.08,62.83 409.89,61.2 409.72,59.58C409.54,57.95 409.38,56.33 409.23,54.7C409.09,53.07 408.96,51.45 408.85,49.82C408.74,48.19 408.65,46.57 408.57,44.94C408.49,43.32 408.42,41.69 408.36,40.07C408.3,38.44 408.27,36.82 408.23,35.19C408.19,33.56 408.17,31.94 408.14,30.31C408.12,28.68 408.1,27.06 408.08,25.43C408.06,23.8 408.05,22.18 408.04,20.55Q408.03,18.93 408.02,15.68L407.98,15.68Q407.97,18.93 407.96,20.55C407.95,22.18 407.94,23.8 407.92,25.43C407.9,27.06 407.88,28.68 407.86,30.31C407.83,31.94 407.81,33.56 407.77,35.19C407.73,36.82 407.7,38.44 407.64,40.07C407.58,41.69 407.51,43.32 407.43,44.94C407.35,46.57 407.26,48.19 407.15,49.82C407.04,51.45 406.91,53.07 406.77,54.7C406.62,56.33 406.46,57.95 406.28,59.58C406.11,61.2 405.92,62.83 405.72,64.45C405.52,66.08 405.31,67.7 405.1,69.33C404.89,70.96 404.67,72.58 404.45,74.21C404.23,75.84 404.02,77.46 403.8,79.09C403.58,80.71 403.36,82.34 403.14,83.96C402.92,85.59 402.69,87.21 402.47,88.84C402.25,90.47 402.02,92.09 401.8,93.72C401.57,95.35 401.34,96.97 401.12,98.6C400.9,100.22 400.67,101.85 400.46,103.47C400.24,105.1 400.04,106.72 399.83,108.35C399.63,109.98 399.43,111.6 399.23,113.23C399.03,114.86 398.84,116.48 398.65,118.11C398.46,119.74 398.27,121.36 398.09,122.99C397.91,124.61 397.73,126.24 397.57,127.86C397.41,129.49 397.25,131.11 397.11,132.74C396.98,134.37 396.85,135.99 396.76,137.62C396.67,139.25 396.6,140.87 396.55,142.5C396.5,144.12 396.48,145.75 396.47,147.37C396.46,149 396.49,150.62 396.52,152.25C396.55,153.88 396.6,155.5 396.67,157.13C396.74,158.76 396.82,160.38 396.92,162.01C397.01,163.63 397.12,165.26 397.24,166.88C397.36,168.51 397.49,170.13 397.62,171.76C397.75,173.39 397.9,175.01 398.04,176.64C398.18,178.27 398.32,179.89 398.47,181.52C398.61,183.14 398.77,184.77 398.91,186.39C399.05,188.02 399.19,189.64 399.33,191.27C399.47,192.9 399.61,194.52 399.75,196.15C399.89,197.78 400.02,199.4 400.16,201.03C400.3,202.66 400.43,204.28 400.58,205.91C400.73,207.53 400.88,209.16 401.05,210.78C401.22,212.41 401.4,214.03 401.61,215.66C401.82,217.29 402.05,218.91 402.3,220.54C402.55,222.17 402.83,223.8 403.11,225.42C403.39,227.05 403.7,228.67 403.99,230.29C404.28,231.92 404.59,233.54 404.87,235.17C405.15,236.8 405.43,238.42 405.68,240.05C405.93,241.68 406.16,243.3 406.37,244.93C406.58,246.55 406.76,248.17 406.92,249.8C407.08,251.42 407.21,253.05 407.32,254.68C407.43,256.31 407.52,257.93 407.6,259.56C407.68,261.19 407.73,262.81 407.78,264.44C407.83,266.06 407.86,267.69 407.89,269.31Q407.92,270.94 407.95,274.19Z" style="vector-effect: non-scaling-stroke; stroke-width: 2px; stroke: rgb(64, 64, 64); stroke-opacity: 1; fill: rgb(255, 151, 255); fill-opacity: 1;"/><path class="box" d="M405.06,151.77H410.94M405.06,187.25H410.94V120.62H405.06ZM408,187.25V244.84M408,120.62V45.03" style="vector-effect: non-scaling-stroke; stroke-width: 2px; stroke: rgb(64, 64, 64); stroke-opacity: 1; fill: rgb(255, 151, 255); fill-opacity: 1;"/><path class="mean" d="M405.06,152.72H410.94" style="fill: none; vector-effect: non-scaling-stroke; stroke-width: 2px; stroke-dasharray: 4px, 2px; stroke: rgb(64, 64, 64); stroke-opacity: 1;"/></g><g class="trace violins" style="opacity: 1;"><path class="violin" d="M456.03,276.15Q456.04,272.96 456.06,271.36C456.08,269.76 456.1,268.17 456.13,266.57C456.16,264.97 456.19,263.37 456.24,261.77C456.29,260.17 456.35,258.58 456.43,256.98C456.51,255.38 456.6,253.79 456.72,252.19C456.84,250.59 456.98,248.99 457.14,247.39C457.31,245.79 457.49,244.19 457.71,242.6C457.93,241 458.18,239.41 458.44,237.81C458.7,236.21 458.99,234.62 459.28,233.02C459.58,231.42 459.9,229.82 460.21,228.22C460.52,226.62 460.83,225.03 461.13,223.43C461.42,221.83 461.72,220.24 461.98,218.64C462.24,217.04 462.49,215.44 462.71,213.84C462.93,212.24 463.12,210.65 463.29,209.05C463.46,207.45 463.61,205.86 463.75,204.26C463.89,202.66 464.02,201.07 464.14,199.47C464.27,197.87 464.37,196.27 464.5,194.67C464.62,193.07 464.75,191.48 464.89,189.88C465.03,188.28 465.17,186.69 465.32,185.09C465.47,183.49 465.62,181.9 465.77,180.3C465.92,178.7 466.08,177.1 466.23,175.5C466.37,173.9 466.51,172.31 466.64,170.71C466.77,169.11 466.88,167.52 466.99,165.92C467.1,164.32 467.2,162.72 467.28,161.12C467.36,159.52 467.42,157.93 467.48,156.33C467.53,154.73 467.58,153.14 467.61,151.54C467.64,149.94 467.66,148.35 467.65,146.75C467.64,145.15 467.61,143.55 467.55,141.95C467.5,140.35 467.42,138.76 467.32,137.16C467.22,135.56 467.1,133.97 466.96,132.37C466.82,130.77 466.65,129.17 466.48,127.57C466.31,125.97 466.13,124.38 465.95,122.78C465.76,121.18 465.56,119.59 465.37,117.99C465.17,116.39 464.98,114.8 464.78,113.2C464.58,111.6 464.38,110 464.17,108.4C463.96,106.8 463.75,105.21 463.53,103.61C463.31,102.01 463.09,100.42 462.86,98.82C462.63,97.22 462.4,95.62 462.17,94.02C461.94,92.42 461.71,90.83 461.48,89.23C461.25,87.63 461.02,86.04 460.8,84.44C460.58,82.84 460.36,81.25 460.14,79.65C459.92,78.05 459.71,76.45 459.5,74.85C459.29,73.25 459.08,71.66 458.87,70.06C458.67,68.46 458.46,66.87 458.27,65.27C458.08,63.67 457.9,62.08 457.73,60.48C457.56,58.88 457.41,57.28 457.27,55.68C457.13,54.08 457.01,52.49 456.9,50.89C456.79,49.29 456.69,47.7 456.61,46.1C456.53,44.5 456.46,42.9 456.4,41.3C456.34,39.7 456.29,38.11 456.25,36.51C456.21,34.91 456.18,33.32 456.15,31.72C456.12,30.12 456.11,28.53 456.09,26.93C456.07,25.33 456.06,23.73 456.05,22.13Q456.04,20.53 456.02,17.34L455.98,17.34Q455.96,20.53 455.95,22.13C455.94,23.73 455.93,25.33 455.91,26.93C455.89,28.53 455.88,30.12 455.85,31.72C455.82,33.32 455.79,34.91 455.75,36.51C455.71,38.11 455.66,39.7 455.6,41.3C455.54,42.9 455.47,44.5 455.39,46.1C455.31,47.7 455.21,49.29 455.1,50.89C454.99,52.49 454.87,54.08 454.73,55.68C454.59,57.28 454.44,58.88 454.27,60.48C454.1,62.08 453.92,63.67 453.73,65.27C453.54,66.87 453.33,68.46 453.13,70.06C452.92,71.66 452.71,73.25 452.5,74.85C452.29,76.45 452.08,78.05 451.86,79.65C451.64,81.25 451.42,82.84 451.2,84.44C450.98,86.04 450.75,87.63 450.52,89.23C450.29,90.83 450.06,92.42 449.83,94.02C449.6,95.62 449.37,97.22 449.14,98.82C448.91,100.42 448.69,102.01 448.47,103.61C448.25,105.21 448.04,106.8 447.83,108.4C447.62,110 447.42,111.6 447.22,113.2C447.02,114.8 446.83,116.39 446.63,117.99C446.44,119.59 446.24,121.18 446.05,122.78C445.87,124.38 445.69,125.97 445.52,127.57C445.35,129.17 445.18,130.77 445.04,132.37C444.9,133.97 444.78,135.56 444.68,137.16C444.58,138.76 444.5,140.35 444.45,141.95C444.39,143.55 444.36,145.15 444.35,146.75C444.34,148.35 444.36,149.94 444.39,151.54C444.42,153.14 444.47,154.73 444.52,156.33C444.58,157.93 444.64,159.52 444.72,161.12C444.8,162.72 444.9,164.32 445.01,165.92C445.12,167.52 445.23,169.11 445.36,170.71C445.49,172.31 445.63,173.9 445.77,175.5C445.92,177.1 446.08,178.7 446.23,180.3C446.38,181.9 446.53,183.49 446.68,185.09C446.83,186.69 446.97,188.28 447.11,189.88C447.25,191.48 447.38,193.07 447.5,194.67C447.63,196.27 447.73,197.87 447.86,199.47C447.98,201.07 448.11,202.66 448.25,204.26C448.39,205.86 448.54,207.45 448.71,209.05C448.88,210.65 449.07,212.24 449.29,213.84C449.51,215.44 449.76,217.04 450.02,218.64C450.28,220.24 450.58,221.83 450.87,223.43C451.17,225.03 451.48,226.62 451.79,228.22C452.1,229.82 452.42,231.42 452.72,233.02C453.01,234.62 453.3,236.21 453.56,237.81C453.82,239.41 454.07,241 454.29,242.6C454.51,244.19 454.69,245.79 454.86,247.39C455.02,248.99 455.16,250.59 455.28,252.19C455.4,253.79 455.49,255.38 455.57,256.98C455.65,258.58 455.71,260.17 455.76,261.77C455.81,263.37 455.84,264.97 455.87,266.57C455.9,268.17 455.92,269.76 455.94,271.36Q455.96,272.96 455.97,276.15Z" style="vector-effect: non-scaling-stroke; stroke-width: 2px; stroke: rgb(64, 64, 64); stroke-opacity: 1; fill: rgb(254, 203, 82); fill-opacity: 1;"/><path class="box" d="M453.06,150.97H458.94M453.06,186.61H458.94V121.8H453.06ZM456,186.61V247.19M456,121.8V46.3" style="vector-effect: non-scaling-stroke; stroke-width: 2px; stroke: rgb(64, 64, 64); stroke-opacity: 1; fill: rgb(254, 203, 82); fill-opacity: 1;"/><path class="mean" d="M453.06,152.71H458.94" style="fill: none; vector-effect: non-scaling-stroke; stroke-width: 2px; stroke-dasharray: 4px, 2px; stroke: rgb(64, 64, 64); stroke-opacity: 1;"/></g></g></g><g class="overplot"/><path class="xlines-above crisp" d="M0,0" style="fill: none;"/><path class="ylines-above crisp" d="M0,0" style="fill: none;"/><g class="overlines-above"/><g class="xaxislayer-above"><g class="xtick"><text text-anchor="start" x="0" y="423" transform="translate(104,0) rotate(30,0,415)" style="font-family: Arial; font-size: 16px; fill: rgb(42, 63, 95); fill-opacity: 1; white-space: pre; opacity: 1;">Sample1</text></g><g class="xtick"><text text-anchor="start" x="0" y="423" transform="translate(152,0) rotate(30,0,415)" style="font-family: Arial; font-size: 16px; fill: rgb(42, 63, 95); fill-opacity: 1; white-space: pre; opacity: 1;">Sample2</text></g><g class="xtick"><text text-anchor="start" x="0" y="423" transform="translate(200,0) rotate(30,0,415)" style="font-family: Arial; font-size: 16px; fill: rgb(42, 63, 95); fill-opacity: 1; white-space: pre; opacity: 1;">Sample3</text></g><g class="xtick"><text text-anchor="start" x="0" y="423" transform="translate(248,0) rotate(30,0,415)" style="font-family: Arial; font-size: 16px; fill: rgb(42, 63, 95); fill-opacity: 1; white-space: pre; opacity: 1;">Sample4</text></g><g class="xtick"><text text-anchor="start" x="0" y="423" transform="translate(296,0) rotate(30,0,415)" style="font-family: Arial; font-size: 16px; fill: rgb(42, 63, 95); fill-opacity: 1; white-space: pre; opacity: 1;">Sample5</text></g><g class="xtick"><text text-anchor="start" x="0" y="423" transform="translate(344,0) rotate(30,0,415)" style="font-family: Arial; font-size: 16px; fill: rgb(42, 63, 95); fill-opacity: 1; white-space: pre; opacity: 1;">Sample6</text></g><g class="xtick"><text text-anchor="start" x="0" y="423" transform="translate(392,0) rotate(30,0,415)" style="font-family: Arial; font-size: 16px; fill: rgb(42, 63, 95); fill-opacity: 1; white-space: pre; opacity: 1;">Sample7</text></g><g class="xtick"><text text-anchor="start" x="0" y="423" transform="translate(440,0) rotate(30,0,415)" style="font-family: Arial; font-size: 16px; fill: rgb(42, 63, 95); fill-opacity: 1; white-space: pre; opacity: 1;">Sample8</text></g><g class="xtick"><text text-anchor="start" x="0" y="423" transform="translate(488,0) rotate(30,0,415)" style="font-family: Arial; font-size: 16px; fill: rgb(42, 63, 95); fill-opacity: 1; white-space: pre; opacity: 1;">Sample9</text></g><g class="xtick"><text text-anchor="start" x="0" y="423" transform="translate(536,0) rotate(30,0,415)" style="font-family: Arial; font-size: 16px; fill: rgb(42, 63, 95); fill-opacity: 1; white-space: pre; opacity: 1;">Sample10</text></g></g><g class="yaxislayer-above"><g class="ytick"><text text-anchor="end" x="79" y="5.6" transform="translate(0,398.39)" style="font-family: Arial; font-size: 16px; fill: rgb(42, 63, 95); fill-opacity: 1; white-space: pre; opacity: 1;">1</text></g><g class="ytick"><text text-anchor="end" x="79" y="5.6" style="font-family: Arial; font-size: 16px; fill: rgb(42, 63, 95); fill-opacity: 1; white-space: pre; opacity: 1;" transform="translate(0,333.34000000000003)">2</text></g><g class="ytick"><text text-anchor="end" x="79" y="5.6" style="font-family: Arial; font-size: 16px; fill: rgb(42, 63, 95); fill-opacity: 1; white-space: pre; opacity: 1;" transform="translate(0,268.28999999999996)">3</text></g><g class="ytick"><text text-anchor="end" x="79" y="5.6" style="font-family: Arial; font-size: 16px; fill: rgb(42, 63, 95); fill-opacity: 1; white-space: pre; opacity: 1;" transform="translate(0,203.24)">4</text></g><g class="ytick"><text text-anchor="end" x="79" y="5.6" style="font-family: Arial; font-size: 16px; fill: rgb(42, 63, 95); fill-opacity: 1; white-space: pre; opacity: 1;" transform="translate(0,138.19)">5</text></g></g><g class="overaxes-above"/></g></g><g class="polarlayer"/><g class="smithlayer"/><g class="ternarylayer"/><g class="geolayer"/><g class="funnelarealayer"/><g class="pielayer"/><g class="iciclelayer"/><g class="treemaplayer"/><g class="sunburstlayer"/><g class="glimages"/><defs id="topdefs-6880c3"><g class="clips"/><clipPath id="legend6880c3"><rect width="118" height="249" x="0" y="0"/></clipPath></defs><g class="layer-above"><g class="imagelayer"/><g class="shapelayer"/></g><g class="infolayer"><g class="legend" pointer-events="all" transform="translate(569.6,100)"><rect class="bg" shape-rendering="crispEdges" width="118" height="249" x="0" y="0" style="stroke: rgb(68, 68, 68); stroke-opacity: 1; fill: rgb(0, 0, 0); fill-opacity: 0; stroke-width: 0px;"/><g class="scrollbox" transform="" clip-path="url(#legend6880c3)"><g class="groups"><g class="traces" transform="translate(0,16.9)" style="opacity: 1;"><text class="legendtext" text-anchor="start" x="40" y="6.24" style="font-family: Arial; font-size: 16px; fill: rgb(42, 63, 95); fill-opacity: 1; white-space: pre;">Sample1</text><g class="layers" style="opacity: 1;"><g class="legendfill"/><g class="legendlines"/><g class="legendsymbols"><g class="legendpoints"><path class="legendbox" d="M6,6H-6V-6H6Z" transform="translate(20,0)" style="stroke-width: 2px; fill: rgb(99, 110, 250); fill-opacity: 1; stroke: rgb(64, 64, 64); stroke-opacity: 1;"/></g></g></g><rect class="legendtoggle" x="0" y="-11.9" width="112.046875" height="23.8" style="fill: rgb(0, 0, 0); fill-opacity: 0;"/></g><g class="traces" transform="translate(0,40.7)" style="opacity: 1;"><text class="legendtext" text-anchor="start" x="40" y="6.24" style="font-family: Arial; font-size: 16px; fill: rgb(42, 63, 95); fill-opacity: 1; white-space: pre;">Sample2</text><g class="layers" style="opacity: 1;"><g class="legendfill"/><g class="legendlines"/><g class="legendsymbols"><g class="legendpoints"><path class="legendbox" d="M6,6H-6V-6H6Z" transform="translate(20,0)" style="stroke-width: 2px; fill: rgb(239, 85, 59); fill-opacity: 1; stroke: rgb(64, 64, 64); stroke-opacity: 1;"/></g></g></g><rect class="legendtoggle" x="0" y="-11.9" width="112.046875" height="23.8" style="fill: rgb(0, 0, 0); fill-opacity: 0;"/></g><g class="traces" transform="translate(0,64.5)" style="opacity: 1;"><text class="legendtext" text-anchor="start" x="40" y="6.24" style="font-family: Arial; font-size: 16px; fill: rgb(42, 63, 95); fill-opacity: 1; white-space: pre;">Sample3</text><g class="layers" style="opacity: 1;"><g class="legendfill"/><g class="legendlines"/><g class="legendsymbols"><g class="legendpoints"><path class="legendbox" d="M6,6H-6V-6H6Z" transform="translate(20,0)" style="stroke-width: 2px; fill: rgb(0, 204, 150); fill-opacity: 1; stroke: rgb(64, 64, 64); stroke-opacity: 1;"/></g></g></g><rect class="legendtoggle" x="0" y="-11.9" width="112.046875" height="23.8" style="fill: rgb(0, 0, 0); fill-opacity: 0;"/></g><g class="traces" transform="translate(0,88.30000000000001)" style="opacity: 1;"><text class="legendtext" text-anchor="start" x="40" y="6.24" style="font-family: Arial; font-size: 16px; fill: rgb(42, 63, 95); fill-opacity: 1; white-space: pre;">Sample4</text><g class="layers" style="opacity: 1;"><g class="legendfill"/><g class="legendlines"/><g class="legendsymbols"><g class="legendpoints"><path class="legendbox" d="M6,6H-6V-6H6Z" transform="translate(20,0)" style="stroke-width: 2px; fill: rgb(171, 99, 250); fill-opacity: 1; stroke: rgb(64, 64, 64); stroke-opacity: 1;"/></g></g></g><rect class="legendtoggle" x="0" y="-11.9" width="112.046875" height="23.8" style="fill: rgb(0, 0, 0); fill-opacity: 0;"/></g><g class="traces" transform="translate(0,112.10000000000001)" style="opacity: 1;"><text class="legendtext" text-anchor="start" x="40" y="6.24" style="font-family: Arial; font-size: 16px; fill: rgb(42, 63, 95); fill-opacity: 1; white-space: pre;">Sample5</text><g class="layers" style="opacity: 1;"><g class="legendfill"/><g class="legendlines"/><g class="legendsymbols"><g class="legendpoints"><path class="legendbox" d="M6,6H-6V-6H6Z" transform="translate(20,0)" style="stroke-width: 2px; fill: rgb(255, 161, 90); fill-opacity: 1; stroke: rgb(64, 64, 64); stroke-opacity: 1;"/></g></g></g><rect class="legendtoggle" x="0" y="-11.9" width="112.046875" height="23.8" style="fill: rgb(0, 0, 0); fill-opacity: 0;"/></g><g class="traces" transform="translate(0,135.9)" style="opacity: 1;"><text class="legendtext" text-anchor="start" x="40" y="6.24" style="font-family: Arial; font-size: 16px; fill: rgb(42, 63, 95); fill-opacity: 1; white-space: pre;">Sample6</text><g class="layers" style="opacity: 1;"><g class="legendfill"/><g class="legendlines"/><g class="legendsymbols"><g class="legendpoints"><path class="legendbox" d="M6,6H-6V-6H6Z" transform="translate(20,0)" style="stroke-width: 2px; fill: rgb(25, 211, 243); fill-opacity: 1; stroke: rgb(64, 64, 64); stroke-opacity: 1;"/></g></g></g><rect class="legendtoggle" x="0" y="-11.9" width="112.046875" height="23.8" style="fill: rgb(0, 0, 0); fill-opacity: 0;"/></g><g class="traces" transform="translate(0,159.70000000000002)" style="opacity: 1;"><text class="legendtext" text-anchor="start" x="40" y="6.24" style="font-family: Arial; font-size: 16px; fill: rgb(42, 63, 95); fill-opacity: 1; white-space: pre;">Sample7</text><g class="layers" style="opacity: 1;"><g class="legendfill"/><g class="legendlines"/><g class="legendsymbols"><g class="legendpoints"><path class="legendbox" d="M6,6H-6V-6H6Z" transform="translate(20,0)" style="stroke-width: 2px; fill: rgb(255, 102, 146); fill-opacity: 1; stroke: rgb(64, 64, 64); stroke-opacity: 1;"/></g></g></g><rect class="legendtoggle" x="0" y="-11.9" width="112.046875" height="23.8" style="fill: rgb(0, 0, 0); fill-opacity: 0;"/></g><g class="traces" transform="translate(0,183.50000000000003)" style="opacity: 1;"><text class="legendtext" text-anchor="start" x="40" y="6.24" style="font-family: Arial; font-size: 16px; fill: rgb(42, 63, 95); fill-opacity: 1; white-space: pre;">Sample8</text><g class="layers" style="opacity: 1;"><g class="legendfill"/><g class="legendlines"/><g class="legendsymbols"><g class="legendpoints"><path class="legendbox" d="M6,6H-6V-6H6Z" transform="translate(20,0)" style="stroke-width: 2px; fill: rgb(182, 232, 128); fill-opacity: 1; stroke: rgb(64, 64, 64); stroke-opacity: 1;"/></g></g></g><rect class="legendtoggle" x="0" y="-11.9" width="112.046875" height="23.8" style="fill: rgb(0, 0, 0); fill-opacity: 0;"/></g><g class="traces" transform="translate(0,207.30000000000004)" style="opacity: 1;"><text class="legendtext" text-anchor="start" x="40" y="6.24" style="font-family: Arial; font-size: 16px; fill: rgb(42, 63, 95); fill-opacity: 1; white-space: pre;">Sample9</text><g class="layers" style="opacity: 1;"><g class="legendfill"/><g class="legendlines"/><g class="legendsymbols"><g class="legendpoints"><path class="legendbox" d="M6,6H-6V-6H6Z" transform="translate(20,0)" style="stroke-width: 2px; fill: rgb(255, 151, 255); fill-opacity: 1; stroke: rgb(64, 64, 64); stroke-opacity: 1;"/></g></g></g><rect class="legendtoggle" x="0" y="-11.9" width="112.046875" height="23.8" style="fill: rgb(0, 0, 0); fill-opacity: 0;"/></g><g class="traces" transform="translate(0,231.10000000000005)" style="opacity: 1;"><text class="legendtext" text-anchor="start" x="40" y="6.24" style="font-family: Arial; font-size: 16px; fill: rgb(42, 63, 95); fill-opacity: 1; white-space: pre;">Sample10</text><g class="layers" style="opacity: 1;"><g class="legendfill"/><g class="legendlines"/><g class="legendsymbols"><g class="legendpoints"><path class="legendbox" d="M6,6H-6V-6H6Z" transform="translate(20,0)" style="stroke-width: 2px; fill: rgb(254, 203, 82); fill-opacity: 1; stroke: rgb(64, 64, 64); stroke-opacity: 1;"/></g></g></g><rect class="legendtoggle" x="0" y="-11.9" width="112.046875" height="23.8" style="fill: rgb(0, 0, 0); fill-opacity: 0;"/></g></g></g><rect class="scrollbar" rx="20" ry="3" width="0" height="0" x="0" y="0" style="fill: rgb(128, 139, 164); fill-opacity: 1;"/></g><g class="g-gtitle"/><g class="g-xtitle"/><g class="g-ytitle"/></g></svg>